<?xml version="1.0" encoding="UTF-8"?>
<svg width="500" height="500" viewBox="0 0 200 200" xmlns="http://www.w3.org/2000/svg">
  <path fill="#D7CDEC" d="M44.7,-76.4C58.8,-69.2,71.8,-59.1,79.6,-45.8C87.4,-32.5,89.9,-16.3,88.6,-0.7C87.3,14.8,82.2,29.7,74.1,43.1C66.1,56.5,55.1,68.5,41.9,74.7C28.7,80.9,14.4,81.3,-0.3,81.9C-14.9,82.4,-29.8,83.1,-43.2,77.2C-56.5,71.2,-68.3,58.7,-76.9,44.3C-85.6,29.8,-91.1,14.9,-91.6,-0.3C-92.2,-15.5,-87.8,-31.1,-79.4,-43.9C-70.9,-56.7,-58.4,-66.9,-44.5,-74.3C-30.5,-81.8,-15.3,-86.6,-0.1,-86.5C15.2,-86.4,30.5,-83.5,44.7,-76.4Z" transform="translate(100 100)" />
</svg>