<?xml version="1.0" encoding="UTF-8"?>
<svg width="100" height="100" viewBox="0 0 200 200" xmlns="http://www.w3.org/2000/svg">
  <path fill="#F0D9DA" d="M52.1,-75.3C65.2,-68,72.2,-49.6,76.3,-32.3C80.3,-14.9,81.4,1.5,77.1,16.2C72.8,30.9,63.2,44,50.7,53.3C38.3,62.7,23.1,68.2,7.3,70.1C-8.4,72,-24.7,70.1,-38.5,63C-52.3,55.8,-63.7,43.4,-71.4,28.5C-79.1,13.5,-83.1,-4,-78.3,-18.5C-73.6,-33,-60,-44.6,-45.8,-51.6C-31.6,-58.6,-16.8,-61,-0.2,-60.8C16.4,-60.6,38.9,-57.7,52.1,-75.3Z" transform="translate(100 100)" />
</svg>