<?xml version="1.0" encoding="UTF-8"?>
<svg width="400" height="400" viewBox="0 0 200 200" xmlns="http://www.w3.org/2000/svg">
  <path fill="#B7D3D8" d="M38.5,-66.2C50.2,-58.7,60.5,-48.3,67.5,-35.7C74.6,-23.1,78.3,-8.3,77.8,6.3C77.2,20.9,72.4,35.4,63.7,47.2C55,59,42.5,68.2,29,72.8C15.6,77.5,1.2,77.8,-13.4,75.1C-28,72.4,-42.7,66.8,-54.8,56.9C-66.9,47,-76.3,32.8,-80.9,16.9C-85.5,0.9,-85.2,-16.8,-78.6,-31.2C-72,-45.6,-59.1,-56.6,-45,-63C-30.9,-69.4,-15.5,-71.1,-0.4,-70.4C14.6,-69.7,29.3,-66.5,38.5,-66.2Z" transform="translate(100 100)" />
</svg>